<svg xmlns="http://www.w3.org/2000/svg" xmlns:xlink="http://www.w3.org/1999/xlink" data-name="Layer 1" viewBox="0 0 300 300"><defs><linearGradient id="a" x1="43.2" x2="43.2" y1="86.4" gradientUnits="userSpaceOnUse"><stop offset="0" stop-color="#00c244"/><stop offset="1" stop-color="#00d64b"/></linearGradient><symbol id="b" data-name="RGB Dollar" viewBox="0 0 300 300"><path d="M56.28 0C65 0 69.29 0 74 1.48a18.34 18.34 0 0 1 11 11c1.48 4.67 1.48 9 1.48 17.68v26.12c0 8.67 0 13-1.48 17.68a18.34 18.34 0 0 1-11 11c-4.67 1.48-9 1.48-17.68 1.48h-26.2c-8.67 0-13 0-17.68-1.48a18.34 18.34 0 0 1-11-11C0 69.29 0 65 0 56.28V30.12c0-8.67 0-13 1.48-17.68a18.34 18.34 0 0 1 11-11C17.11 0 21.45 0 30.12 0Z" style="fill-rule:evenodd;fill:url(#a)"/><path d="M45.4 28.33A18 18 0 0 1 57 32.59a1.77 1.77 0 0 0 2.43-.05l3.34-3.35a1.71 1.71 0 0 0-.09-2.51 26.48 26.48 0 0 0-8.93-5l1-4.93a1.74 1.74 0 0 0-1.71-2.09h-6.43a1.75 1.75 0 0 0-1.71 1.37l-.9 4.41c-8.56.42-15.82 4.66-15.82 13.35 0 7.51 6 10.74 12.34 13 6 2.23 9.18 3.06 9.18 6.2s-3.17 5.12-7.84 5.12a17.26 17.26 0 0 1-12.19-4.77 1.74 1.74 0 0 0-2.44 0l-3.58 3.5a1.73 1.73 0 0 0 0 2.49A23.71 23.71 0 0 0 34 65l-1 4.57a1.78 1.78 0 0 0 1.7 2.14h6.45a1.75 1.75 0 0 0 1.72-1.38L43.8 66c10.26-.63 16.53-6.15 16.53-14.23 0-7.44-6.25-10.58-13.84-13.14-4.34-1.63-8.09-2.7-8.09-5.92s3.5-4.38 7-4.38Z" style="fill:#fff"/></symbol></defs><use xlink:href="#b" width="300" height="300" transform="scale(3.46901 3.47062)"/></svg>